<svg width="1200" height="980" viewBox="0 0 1200 980" fill="none" xmlns="http://www.w3.org/2000/svg">
  <rect width="1200" height="980" fill="#2A2A2A"/>
  <rect x="52" y="34" width="1096" height="912" fill="#F7F5EE"/>
  <g opacity="0.2" stroke="#97A3B6" stroke-width="1">
    <path d="M84 34V946"/><path d="M116 34V946"/><path d="M148 34V946"/><path d="M180 34V946"/><path d="M212 34V946"/><path d="M244 34V946"/><path d="M276 34V946"/><path d="M308 34V946"/><path d="M340 34V946"/><path d="M372 34V946"/><path d="M404 34V946"/><path d="M436 34V946"/><path d="M468 34V946"/><path d="M500 34V946"/><path d="M532 34V946"/><path d="M564 34V946"/><path d="M596 34V946"/><path d="M628 34V946"/><path d="M660 34V946"/><path d="M692 34V946"/><path d="M724 34V946"/><path d="M756 34V946"/><path d="M788 34V946"/><path d="M820 34V946"/><path d="M852 34V946"/><path d="M884 34V946"/><path d="M916 34V946"/><path d="M948 34V946"/><path d="M980 34V946"/><path d="M1012 34V946"/><path d="M1044 34V946"/><path d="M1076 34V946"/><path d="M1108 34V946"/>
    <path d="M52 66H1148"/><path d="M52 98H1148"/><path d="M52 130H1148"/><path d="M52 162H1148"/><path d="M52 194H1148"/><path d="M52 226H1148"/><path d="M52 258H1148"/><path d="M52 290H1148"/><path d="M52 322H1148"/><path d="M52 354H1148"/><path d="M52 386H1148"/><path d="M52 418H1148"/><path d="M52 450H1148"/><path d="M52 482H1148"/><path d="M52 514H1148"/><path d="M52 546H1148"/><path d="M52 578H1148"/><path d="M52 610H1148"/><path d="M52 642H1148"/><path d="M52 674H1148"/><path d="M52 706H1148"/><path d="M52 738H1148"/><path d="M52 770H1148"/><path d="M52 802H1148"/><path d="M52 834H1148"/><path d="M52 866H1148"/><path d="M52 898H1148"/><path d="M52 930H1148"/>
  </g>

  <path d="M96 146L226 58H498V300L432 364H300L246 424H96V146Z" fill="#FFC94A" stroke="#111827" stroke-width="7"/>
  <path d="M96 328H294L388 236V66" stroke="#111827" stroke-width="6"/>
  <path d="M96 382H262L410 228V66" stroke="#111827" stroke-width="6"/>

  <path d="M500 58H1082V426H1032V934H478V810H444V500L536 410V152H500V58Z" stroke="#111827" stroke-width="7"/>
  <path d="M96 492H444V810H96V492Z" stroke="#111827" stroke-width="7"/>
  <path d="M444 500L536 410" stroke="#111827" stroke-width="7"/>
  <path d="M444 532L516 460" stroke="#111827" stroke-width="5"/>
  <path d="M476 564L548 492" stroke="#111827" stroke-width="5"/>

  <rect x="116" y="532" width="170" height="106" rx="14" fill="#F9F1C4" stroke="#111827" stroke-width="5"/>
  <rect x="116" y="682" width="170" height="160" rx="14" fill="#F9F1C4" stroke="#111827" stroke-width="5"/>
  <rect x="300" y="682" width="164" height="160" rx="14" fill="#F7D7C7" stroke="#111827" stroke-width="5"/>

  <rect x="540" y="72" width="150" height="122" rx="14" fill="#D8F060" stroke="#111827" stroke-width="5"/>
  <rect x="692" y="72" width="392" height="122" rx="14" fill="#8E90F3" stroke="#111827" stroke-width="5"/>
  <rect x="568" y="246" width="476" height="132" rx="14" fill="#E78AD2" stroke="#111827" stroke-width="5"/>
  <rect x="612" y="514" width="266" height="162" rx="14" fill="#C1ADA0" stroke="#111827" stroke-width="5"/>
  <rect x="928" y="516" width="92" height="166" rx="14" fill="#9990D8" stroke="#111827" stroke-width="5"/>
  <rect x="568" y="724" width="476" height="166" rx="14" fill="#F4668D" stroke="#111827" stroke-width="5"/>
  <rect x="568" y="906" width="476" height="122" rx="14" transform="translate(0 -84)" fill="#FF7A43" stroke="#111827" stroke-width="5"/>

  <rect x="392" y="356" width="178" height="136" rx="16" transform="rotate(-45 392 356)" fill="url(#setmanGradient)" stroke="#111827" stroke-width="6"/>

  <path d="M742 220H910" stroke="#111827" stroke-width="6"/>
  <path d="M648 404H930" stroke="#111827" stroke-width="6"/>
  <path d="M644 700H820" stroke="#111827" stroke-width="6"/>
  <path d="M896 598V698" stroke="#111827" stroke-width="6"/>
  <path d="M720 894H896" stroke="#111827" stroke-width="6"/>
  <path d="M708 840H908" stroke="#111827" stroke-width="6"/>

  <rect x="1034" y="334" width="54" height="64" rx="6" fill="none" stroke="#69B9F0" stroke-width="4"/>
  <circle cx="1034" cy="366" r="8" fill="#69B9F0"/>
  <circle cx="1088" cy="366" r="8" fill="#69B9F0"/>
  <circle cx="1061" cy="334" r="8" fill="#69B9F0"/>
  <circle cx="1061" cy="398" r="8" fill="#69B9F0"/>
  <text x="1044" y="385" fill="#1F2937" font-size="28" font-family="Arial, sans-serif" font-weight="700">CP</text>

  <text x="188" y="214" fill="#111827" font-size="36" font-family="Arial, sans-serif" font-weight="700">ALTAR</text>
  <text x="164" y="596" fill="#111827" font-size="32" font-family="Arial, sans-serif" font-weight="700">CHOIR</text>
  <text x="156" y="772" fill="#111827" font-size="32" font-family="Arial, sans-serif" font-weight="700">CHOIR</text>
  <text x="330" y="772" fill="#111827" font-size="32" font-family="Arial, sans-serif" font-weight="700">SECTION 3</text>

  <text x="586" y="116" fill="#253214" font-size="26" font-family="Arial, sans-serif" font-weight="700">SMRS</text>
  <text x="598" y="148" fill="#253214" font-size="26" font-family="Arial, sans-serif" font-weight="700">VIPS</text>
  <text x="566" y="180" fill="#253214" font-size="26" font-family="Arial, sans-serif" font-weight="700">MINISTERS</text>
  <text x="792" y="140" fill="#202554" font-size="34" font-family="Arial, sans-serif" font-weight="700">SECTION 2</text>
  <text x="742" y="314" fill="#562456" font-size="36" font-family="Arial, sans-serif" font-weight="700">SECTION 1</text>

  <text x="430" y="436" fill="#111827" font-size="24" font-family="Arial, sans-serif" font-weight="700" transform="rotate(-45 430 436)">SETMAN</text>
  <text x="456" y="468" fill="#111827" font-size="24" font-family="Arial, sans-serif" font-weight="700" transform="rotate(-45 456 468)">/ VVIP</text>
  <text x="422" y="500" fill="#111827" font-size="24" font-family="Arial, sans-serif" font-weight="700" transform="rotate(-45 422 500)">CEC SECTION</text>

  <text x="514" y="228" fill="#111827" font-size="24" font-family="Arial, sans-serif" font-weight="700">PP</text>
  <text x="224" y="548" fill="#111827" font-size="24" font-family="Arial, sans-serif" font-weight="700">PP</text>

  <text x="720" y="604" fill="#4B3E39" font-size="34" font-family="Arial, sans-serif" font-weight="700">extension</text>
  <text x="970" y="610" fill="#4B3E39" font-size="30" font-family="Arial, sans-serif" font-weight="700" transform="rotate(90 970 610)">extension</text>
  <text x="742" y="806" fill="#5F2836" font-size="36" font-family="Arial, sans-serif" font-weight="700">extension</text>
  <text x="742" y="918" fill="#6D341E" font-size="36" font-family="Arial, sans-serif" font-weight="700">extension</text>

  <text x="1088" y="312" fill="#111827" font-size="24" font-family="Arial, sans-serif" font-weight="700" transform="rotate(90 1088 312)">ENTRANCE</text>
  <text x="1020" y="810" fill="#111827" font-size="24" font-family="Arial, sans-serif" font-weight="700" transform="rotate(90 1020 810)">ENTRANCE</text>
  <text x="244" y="878" fill="#111827" font-size="28" font-family="Arial, sans-serif" font-weight="700">ENTRANCE</text>

  <defs>
    <linearGradient id="setmanGradient" x1="392" y1="356" x2="570" y2="492" gradientUnits="userSpaceOnUse">
      <stop stop-color="#FF5C73"/>
      <stop offset="1" stop-color="#FFB65C"/>
    </linearGradient>
  </defs>
</svg>
